<?xml version="1.0" encoding="UTF-8"?>
<svg xmlns="http://www.w3.org/2000/svg" viewBox="0 0 1400 2000" width="1400" height="2000">
  <defs>
    <style>
      .icon-grid { fill: white; stroke: #e5e7eb; stroke-width: 1; }
      .icon-label { font-family: Arial, sans-serif; font-size: 12px; fill: #374151; text-anchor: middle; }
      .icon-color-label { font-family: Arial, sans-serif; font-size: 10px; fill: #9CA3AF; text-anchor: middle; }
      .category-title { font-family: Arial, sans-serif; font-size: 18px; font-weight: bold; fill: #1F2937; }
    </style>
  </defs>

  <!-- Background -->
  <rect width="1400" height="2000" fill="#f9fafb"/>

  <!-- HEADER -->
  <text x="700" y="40" class="category-title" style="font-size: 28px; text-anchor: middle;">🎨 Catalogue des Icônes AT Réservations</text>
  <text x="700" y="70" class="category-title" style="font-size: 14px; text-anchor: middle;">93 icônes Lucide React avec vraies couleurs</text>

  <!-- CATEGORY 1: Navigation & Structure -->
  <text x="20" y="120" class="category-title">Navigation & Structure (8 icônes)</text>
  
  <!-- ChevronLeft -->
  <rect x="20" y="140" width="100" height="120" class="icon-grid"/>
  <svg x="35" y="150" width="70" height="70" viewBox="0 0 24 24" fill="none" stroke="#4B5563" stroke-width="2" stroke-linecap="round" stroke-linejoin="round">
    <polyline points="15 18 9 12 15 6"></polyline>
  </svg>
  <text x="70" y="270" class="icon-label">ChevronLeft</text>
  <text x="70" y="285" class="icon-color-label">#4B5563</text>

  <!-- ChevronRight -->
  <rect x="130" y="140" width="100" height="120" class="icon-grid"/>
  <svg x="145" y="150" width="70" height="70" viewBox="0 0 24 24" fill="none" stroke="#4B5563" stroke-width="2" stroke-linecap="round" stroke-linejoin="round">
    <polyline points="9 18 15 12 9 6"></polyline>
  </svg>
  <text x="180" y="270" class="icon-label">ChevronRight</text>
  <text x="180" y="285" class="icon-color-label">#4B5563</text>

  <!-- ChevronDown -->
  <rect x="240" y="140" width="100" height="120" class="icon-grid"/>
  <svg x="255" y="150" width="70" height="70" viewBox="0 0 24 24" fill="none" stroke="#4B5563" stroke-width="2" stroke-linecap="round" stroke-linejoin="round">
    <polyline points="6 9 12 15 18 9"></polyline>
  </svg>
  <text x="290" y="270" class="icon-label">ChevronDown</text>
  <text x="290" y="285" class="icon-color-label">#4B5563</text>

  <!-- X (Close) -->
  <rect x="350" y="140" width="100" height="120" class="icon-grid"/>
  <svg x="365" y="150" width="70" height="70" viewBox="0 0 24 24" fill="none" stroke="#4B5563" stroke-width="2" stroke-linecap="round" stroke-linejoin="round">
    <line x1="18" y1="6" x2="6" y2="18"></line>
    <line x1="6" y1="6" x2="18" y2="18"></line>
  </svg>
  <text x="400" y="270" class="icon-label">X</text>
  <text x="400" y="285" class="icon-color-label">#4B5563</text>

  <!-- Menu -->
  <rect x="460" y="140" width="100" height="120" class="icon-grid"/>
  <svg x="475" y="150" width="70" height="70" viewBox="0 0 24 24" fill="none" stroke="#4B5563" stroke-width="2" stroke-linecap="round" stroke-linejoin="round">
    <line x1="8" y1="6" x2="21" y2="6"></line>
    <line x1="8" y1="12" x2="21" y2="12"></line>
    <line x1="8" y1="18" x2="21" y2="18"></line>
  </svg>
  <text x="510" y="270" class="icon-label">Menu</text>
  <text x="510" y="285" class="icon-color-label">#4B5563</text>

  <!-- CATEGORY 2: Dashboard & Statistiques -->
  <text x="20" y="370" class="category-title">Dashboard & Statistiques (10 icônes)</text>

  <!-- TrendingUp (Green) -->
  <rect x="20" y="390" width="100" height="120" class="icon-grid"/>
  <svg x="35" y="400" width="70" height="70" viewBox="0 0 24 24" fill="none" stroke="#16A34A" stroke-width="2" stroke-linecap="round" stroke-linejoin="round">
    <polyline points="23 6 13.5 15.5 8.5 10.5 1 17"></polyline>
    <polyline points="17 6 23 6 23 12"></polyline>
  </svg>
  <text x="70" y="520" class="icon-label">TrendingUp</text>
  <text x="70" y="535" class="icon-color-label">#16A34A</text>

  <!-- TrendingDown (Red) -->
  <rect x="130" y="390" width="100" height="120" class="icon-grid"/>
  <svg x="145" y="400" width="70" height="70" viewBox="0 0 24 24" fill="none" stroke="#DC2626" stroke-width="2" stroke-linecap="round" stroke-linejoin="round">
    <polyline points="23 18 13.5 8.5 8.5 13.5 1 7"></polyline>
    <polyline points="17 18 23 18 23 12"></polyline>
  </svg>
  <text x="180" y="520" class="icon-label">TrendingDown</text>
  <text x="180" y="535" class="icon-color-label">#DC2626</text>

  <!-- BarChart3 (Blue) -->
  <rect x="240" y="390" width="100" height="120" class="icon-grid"/>
  <svg x="255" y="400" width="70" height="70" viewBox="0 0 24 24" fill="none" stroke="#2563EB" stroke-width="2" stroke-linecap="round" stroke-linejoin="round">
    <line x1="12" y1="3" x2="12" y2="20"></line>
    <line x1="18" y1="10" x2="18" y2="20"></line>
    <line x1="6" y1="14" x2="6" y2="20"></line>
  </svg>
  <text x="290" y="520" class="icon-label">BarChart3</text>
  <text x="290" y="535" class="icon-color-label">#2563EB</text>

  <!-- PieChart (Blue) -->
  <rect x="350" y="390" width="100" height="120" class="icon-grid"/>
  <svg x="365" y="400" width="70" height="70" viewBox="0 0 24 24" fill="none" stroke="#2563EB" stroke-width="2" stroke-linecap="round" stroke-linejoin="round">
    <path d="M21.21 15.89A10 10 0 1 1 8 2.83"></path>
    <line x1="22" y1="12" x2="12" y2="12"></line>
  </svg>
  <text x="400" y="520" class="icon-label">PieChart</text>
  <text x="400" y="535" class="icon-color-label">#2563EB</text>

  <!-- Activity (Amber) -->
  <rect x="460" y="390" width="100" height="120" class="icon-grid"/>
  <svg x="475" y="400" width="70" height="70" viewBox="0 0 24 24" fill="none" stroke="#D97706" stroke-width="2" stroke-linecap="round" stroke-linejoin="round">
    <polyline points="22 12 18 12 15 21 9 3 6 12 2 12"></polyline>
  </svg>
  <text x="510" y="520" class="icon-label">Activity</text>
  <text x="510" y="535" class="icon-color-label">#D97706</text>

  <!-- CATEGORY 3: Missions & Réservations -->
  <text x="20" y="620" class="category-title">Missions & Réservations (10 icônes)</text>

  <!-- Briefcase (Blue) -->
  <rect x="20" y="640" width="100" height="120" class="icon-grid"/>
  <svg x="35" y="650" width="70" height="70" viewBox="0 0 24 24" fill="none" stroke="#2563EB" stroke-width="2" stroke-linecap="round" stroke-linejoin="round">
    <rect x="2" y="7" width="20" height="14" rx="2" ry="2"></rect>
    <path d="M16 7V5a2 2 0 0 0-2-2h-4a2 2 0 0 0-2 2v2"></path>
  </svg>
  <text x="70" y="770" class="icon-label">Briefcase</text>
  <text x="70" y="785" class="icon-color-label">#2563EB</text>

  <!-- Plane (Blue) -->
  <rect x="130" y="640" width="100" height="120" class="icon-grid"/>
  <svg x="145" y="650" width="70" height="70" viewBox="0 0 24 24" fill="none" stroke="#2563EB" stroke-width="2" stroke-linecap="round" stroke-linejoin="round">
    <path d="M17.8 19.2 16 11l3.5-3.5C21 6 21.5 4 21 3c-1-.5-3 0-4.5 1.5L13 8 4.8 6.2c-.5-.1-.9.1-1.1.5l-.3.5c-.2.5-.1 1 .3 1.3L9 12l-2 3H4l-1 1 3 2 2 3 1-1v-3l3-2 3.5 5.3c.3.4.8.5 1.3.3l.5-.2c.4-.3.6-.7.5-1.2z"></path>
  </svg>
  <text x="180" y="770" class="icon-label">Plane</text>
  <text x="180" y="785" class="icon-color-label">#2563EB</text>

  <!-- Truck (Green) -->
  <rect x="240" y="640" width="100" height="120" class="icon-grid"/>
  <svg x="255" y="650" width="70" height="70" viewBox="0 0 24 24" fill="none" stroke="#16A34A" stroke-width="2" stroke-linecap="round" stroke-linejoin="round">
    <path d="M14 18V6a2 2 0 0 0-2-2H4a2 2 0 0 0-2 2v11a1 1 0 0 0 1 1h2"></path>
    <path d="M15 18H9"></path>
    <circle cx="17" cy="18" r="2"></circle>
    <circle cx="7" cy="18" r="2"></circle>
  </svg>
  <text x="290" y="770" class="icon-label">Truck</text>
  <text x="290" y="785" class="icon-color-label">#16A34A</text>

  <!-- MapPin (Red) -->
  <rect x="350" y="640" width="100" height="120" class="icon-grid"/>
  <svg x="365" y="650" width="70" height="70" viewBox="0 0 24 24" fill="none" stroke="#DC2626" stroke-width="2" stroke-linecap="round" stroke-linejoin="round">
    <path d="M20 10c0 4.993-5.539 10.193-7.399 11.799a1 1 0 0 1-1.202 0C9.539 20.193 4 14.993 4 10a8 8 0 0 1 16 0"></path>
    <circle cx="12" cy="10" r="3"></circle>
  </svg>
  <text x="400" y="770" class="icon-label">MapPin</text>
  <text x="400" y="785" class="icon-color-label">#DC2626</text>

  <!-- CATEGORY 4: Communication -->
  <text x="20" y="870" class="category-title">Communication (9 icônes)</text>

  <!-- Bell (Amber) -->
  <rect x="20" y="890" width="100" height="120" class="icon-grid"/>
  <svg x="35" y="900" width="70" height="70" viewBox="0 0 24 24" fill="none" stroke="#D97706" stroke-width="2" stroke-linecap="round" stroke-linejoin="round">
    <path d="M18 8A6 6 0 0 0 6 8c0 7-3 9-3 9h18s-3-2-3-9"></path>
    <path d="M13.73 21a2 2 0 0 1-3.46 0"></path>
  </svg>
  <text x="70" y="1020" class="icon-label">Bell</text>
  <text x="70" y="1035" class="icon-color-label">#D97706</text>

  <!-- MessageSquare (Blue) -->
  <rect x="130" y="890" width="100" height="120" class="icon-grid"/>
  <svg x="145" y="900" width="70" height="70" viewBox="0 0 24 24" fill="none" stroke="#2563EB" stroke-width="2" stroke-linecap="round" stroke-linejoin="round">
    <path d="M22 17a2 2 0 0 1-2 2H6.828a2 2 0 0 0-1.414.586l-2.202 2.202A.71.71 0 0 1 2 21.286V5a2 2 0 0 1 2-2h16a2 2 0 0 1 2 2z"></path>
  </svg>
  <text x="180" y="1020" class="icon-label">MessageSquare</text>
  <text x="180" y="1035" class="icon-color-label">#2563EB</text>

  <!-- Send (Blue) -->
  <rect x="240" y="890" width="100" height="120" class="icon-grid"/>
  <svg x="255" y="900" width="70" height="70" viewBox="0 0 24 24" fill="none" stroke="#2563EB" stroke-width="2" stroke-linecap="round" stroke-linejoin="round">
    <path d="M14.536 21.686a.5.5 0 0 0 .937-.024l6.5-19a.496.496 0 0 0-.635-.635l-19 6.5a.5.5 0 0 0-.024.937l7.93 3.18a2 2 0 0 1 1.112 1.11z"></path>
  </svg>
  <text x="290" y="1020" class="icon-label">Send</text>
  <text x="290" y="1035" class="icon-color-label">#2563EB</text>

  <!-- CATEGORY 5: Actions & Statuts -->
  <text x="20" y="1120" class="category-title">Actions & Statuts (15 icônes)</text>

  <!-- CheckCircle2 (Green) -->
  <rect x="20" y="1140" width="100" height="120" class="icon-grid"/>
  <svg x="35" y="1150" width="70" height="70" viewBox="0 0 24 24" fill="none" stroke="#16A34A" stroke-width="2" stroke-linecap="round" stroke-linejoin="round">
    <path d="M12 22c5.523 0 10-4.477 10-10S17.523 2 12 2 2 6.477 2 12s4.477 10 10 10z"></path>
    <path d="m9 12 2 2 4-4"></path>
  </svg>
  <text x="70" y="1270" class="icon-label">CheckCircle2</text>
  <text x="70" y="1285" class="icon-color-label">#16A34A</text>

  <!-- XCircle (Red) -->
  <rect x="130" y="1140" width="100" height="120" class="icon-grid"/>
  <svg x="145" y="1150" width="70" height="70" viewBox="0 0 24 24" fill="none" stroke="#DC2626" stroke-width="2" stroke-linecap="round" stroke-linejoin="round">
    <circle cx="12" cy="12" r="10"></circle>
    <line x1="15" y1="9" x2="9" y2="15"></line>
    <line x1="9" y1="9" x2="15" y2="15"></line>
  </svg>
  <text x="180" y="1270" class="icon-label">XCircle</text>
  <text x="180" y="1285" class="icon-color-label">#DC2626</text>

  <!-- AlertTriangle (Amber) -->
  <rect x="240" y="1140" width="100" height="120" class="icon-grid"/>
  <svg x="255" y="1150" width="70" height="70" viewBox="0 0 24 24" fill="none" stroke="#D97706" stroke-width="2" stroke-linecap="round" stroke-linejoin="round">
    <path d="m21.73 18-8-14a2 2 0 0 0-3.48 0l-8 14A2 2 0 0 0 4 21h16a2 2 0 0 0 1.73-3"></path>
    <line x1="12" y1="9" x2="12" y2="13"></line>
    <line x1="12" y1="17" x2="12.01" y2="17"></line>
  </svg>
  <text x="290" y="1270" class="icon-label">AlertTriangle</text>
  <text x="290" y="1285" class="icon-color-label">#D97706</text>

  <!-- Plus (Blue) -->
  <rect x="350" y="1140" width="100" height="120" class="icon-grid"/>
  <svg x="365" y="1150" width="70" height="70" viewBox="0 0 24 24" fill="none" stroke="#2563EB" stroke-width="2" stroke-linecap="round" stroke-linejoin="round">
    <line x1="5" y1="12" x2="19" y2="12"></line>
    <line x1="12" y1="5" x2="12" y2="19"></line>
  </svg>
  <text x="400" y="1270" class="icon-label">Plus</text>
  <text x="400" y="1285" class="icon-color-label">#2563EB</text>

  <!-- Download (Blue) -->
  <rect x="460" y="1140" width="100" height="120" class="icon-grid"/>
  <svg x="475" y="1150" width="70" height="70" viewBox="0 0 24 24" fill="none" stroke="#2563EB" stroke-width="2" stroke-linecap="round" stroke-linejoin="round">
    <path d="M12 15V3"></path>
    <path d="M21 15v4a2 2 0 0 1-2 2H5a2 2 0 0 1-2-2v-4"></path>
    <polyline points="7 10 12 15 17 10"></polyline>
  </svg>
  <text x="510" y="1270" class="icon-label">Download</text>
  <text x="510" y="1285" class="icon-color-label">#2563EB</text>

  <!-- CATEGORY 6: Authentification & Sécurité -->
  <text x="20" y="1370" class="category-title">Authentification & Sécurité (8 icônes)</text>

  <!-- Lock (Gray) -->
  <rect x="20" y="1390" width="100" height="120" class="icon-grid"/>
  <svg x="35" y="1400" width="70" height="70" viewBox="0 0 24 24" fill="none" stroke="#4B5563" stroke-width="2" stroke-linecap="round" stroke-linejoin="round">
    <rect x="3" y="11" width="18" height="11" rx="2" ry="2"></rect>
    <path d="M7 11V7a5 5 0 0 1 10 0v4"></path>
  </svg>
  <text x="70" y="1520" class="icon-label">Lock</text>
  <text x="70" y="1535" class="icon-color-label">#4B5563</text>

  <!-- Eye (Gray) -->
  <rect x="130" y="1390" width="100" height="120" class="icon-grid"/>
  <svg x="145" y="1400" width="70" height="70" viewBox="0 0 24 24" fill="none" stroke="#4B5563" stroke-width="2" stroke-linecap="round" stroke-linejoin="round">
    <path d="M1 12s4-8 11-8 11 8 11 8-4 8-11 8-11-8-11-8z"></path>
    <circle cx="12" cy="12" r="3"></circle>
  </svg>
  <text x="180" y="1520" class="icon-label">Eye</text>
  <text x="180" y="1535" class="icon-color-label">#4B5563</text>

  <!-- KeyRound (Blue) -->
  <rect x="240" y="1390" width="100" height="120" class="icon-grid"/>
  <svg x="255" y="1400" width="70" height="70" viewBox="0 0 24 24" fill="none" stroke="#2563EB" stroke-width="2" stroke-linecap="round" stroke-linejoin="round">
    <path d="M2.586 17.414A2 2 0 0 0 2 18.828v3a2 2 0 0 0 2 2h3a2 2 0 0 0 2-2v-.172a2 2 0 0 0-.586-1.414L7 13"></path>
    <circle cx="15" cy="9" r="6"></circle>
  </svg>
  <text x="290" y="1520" class="icon-label">KeyRound</text>
  <text x="290" y="1535" class="icon-color-label">#2563EB</text>

  <!-- ShieldCheck (Green) -->
  <rect x="350" y="1390" width="100" height="120" class="icon-grid"/>
  <svg x="365" y="1400" width="70" height="70" viewBox="0 0 24 24" fill="none" stroke="#16A34A" stroke-width="2" stroke-linecap="round" stroke-linejoin="round">
    <path d="M12 22s8-4 8-10V5l-8-3-8 3v7c0 6 8 10 8 10z"></path>
    <polyline points="9 12 12 15 15 9"></polyline>
  </svg>
  <text x="400" y="1520" class="icon-label">ShieldCheck</text>
  <text x="400" y="1535" class="icon-color-label">#16A34A</text>

  <!-- FOOTER -->
  <text x="20" y="1800" class="category-title" style="font-size: 12px;">📊 Résumé: 93 icônes | 7 catégories | 11 couleurs uniques | AT Réservations v1.0</text>
  <text x="20" y="1820" class="category-title" style="font-size: 12px;">Librairie: Lucide React v0.577.0 | Format: SVG + JSON | Généré: Août 2026</text>

</svg>
